<svg width="100" height="40" viewBox="0 0 100 40" fill="none" xmlns="http://www.w3.org/2000/svg">
<rect width="100" height="40" rx="5" fill="#F5C518"/>
<path d="M18.9062 8.25V31H14.2344V8.25H18.9062ZM25.4375 8.25H29.4062L35.25 24.9531L41.0938 8.25H45.0625L36.8438 31H33.6562L25.4375 8.25ZM23.2969 8.25H27.25L27.9688 24.5312V31H23.2969V8.25ZM43.25 8.25H47.2188V31H42.5312V24.5312L43.25 8.25ZM58.3125 31H53.3594L53.3906 27.3438H58.3125C59.5417 27.3438 60.5781 27.0677 61.4219 26.5156C62.2656 25.9531 62.901 25.1354 63.3281 24.0625C63.7656 22.9896 63.9844 21.6927 63.9844 20.1719V19.0625C63.9844 17.8958 63.8594 16.8698 63.6094 15.9844C63.3698 15.099 63.0104 14.3542 62.5312 13.75C62.0521 13.1458 61.4635 12.6927 60.7656 12.3906C60.0677 12.0781 59.2656 11.9219 58.3594 11.9219H53.2656V8.25H58.3594C59.8802 8.25 61.2708 8.51042 62.5312 9.03125C63.8021 9.54167 64.901 10.276 65.8281 11.2344C66.7552 12.1927 67.4688 13.3385 67.9688 14.6719C68.4792 15.9948 68.7344 17.4688 68.7344 19.0938V20.1719C68.7344 21.7865 68.4792 23.2604 67.9688 24.5938C67.4688 25.9271 66.7552 27.0729 65.8281 28.0312C64.9115 28.9792 63.8125 29.7135 62.5312 30.2344C61.2604 30.7448 59.8542 31 58.3125 31ZM56.0156 8.25V31H51.3281V8.25H56.0156ZM71.8594 7H76.3594V27.125L75.9062 31H71.8594V7ZM87.0625 22.375V22.7031C87.0625 23.9635 86.9271 25.1198 86.6562 26.1719C86.3958 27.224 85.9896 28.1354 85.4375 28.9062C84.8854 29.6667 84.1979 30.2604 83.375 30.6875C82.5625 31.1042 81.6042 31.3125 80.5 31.3125C79.4688 31.3125 78.5729 31.1042 77.8125 30.6875C77.0625 30.2708 76.4323 29.6823 75.9219 28.9219C75.4115 28.1615 75 27.2708 74.6875 26.25C74.375 25.2292 74.1406 24.1146 73.9844 22.9062V22.1875C74.1406 20.9792 74.375 19.8646 74.6875 18.8438C75 17.8229 75.4115 16.9323 75.9219 16.1719C76.4323 15.4115 77.0625 14.8229 77.8125 14.4062C78.5625 13.9896 79.4479 13.7812 80.4688 13.7812C81.5833 13.7812 82.5521 13.9948 83.375 14.4219C84.2083 14.8385 84.8958 15.4323 85.4375 16.2031C85.9896 16.9635 86.3958 17.8698 86.6562 18.9219C86.9271 19.9635 87.0625 21.1146 87.0625 22.375ZM82.5625 22.7031V22.375C82.5625 21.6875 82.5104 21.0417 82.4062 20.4375C82.3125 19.8229 82.1458 19.2865 81.9062 18.8281C81.6667 18.3594 81.3385 17.9896 80.9219 17.7188C80.5156 17.4479 79.9896 17.3125 79.3438 17.3125C78.7292 17.3125 78.2083 17.4167 77.7812 17.625C77.3542 17.8333 77 18.125 76.7188 18.5C76.4479 18.875 76.2448 19.3229 76.1094 19.8438C75.974 20.3542 75.8906 20.9167 75.8594 21.5312V23.5781C75.8906 24.401 76.026 25.1302 76.2656 25.7656C76.5156 26.3906 76.8906 26.8854 77.3906 27.25C77.901 27.6042 78.5625 27.7812 79.375 27.7812C80.0104 27.7812 80.5365 27.6562 80.9531 27.4062C81.3698 27.1562 81.6927 26.8021 81.9219 26.3438C82.1615 25.8854 82.3281 25.349 82.4219 24.7344C82.5156 24.1094 82.5625 23.4323 82.5625 22.7031Z" fill="#141414"/>
</svg>
