<svg width="40" height="40" viewBox="0 0 40 40" fill="none" xmlns="http://www.w3.org/2000/svg">
<g clip-path="url(#clip0_4_12)">
<path d="M39.1437 26.8488C36.9092 36.1126 26.5474 41.5601 15.9999 39.016C5.45242 36.472 -1.28672 26.8997 0.947733 17.6359C3.18219 8.37204 13.544 2.92454 24.0915 5.4686C34.639 8.01266 41.3781 17.5848 39.1437 26.8488Z" fill="#FF473E"/>
<path d="M28.2179 9.46541C28.1239 9.4861 28.0257 9.47399 27.9396 9.43111L27.8811 9.40197C27.8811 9.40197 27.8395 9.38126 27.7662 9.33916C27.6946 9.29595 27.5838 9.23642 27.4543 9.15298C27.4216 9.13228 27.3863 9.11111 27.3514 9.08751L27.2972 9.0522L27.2415 9.02369C27.1649 8.98587 27.0882 8.94267 27.0053 8.8997C26.9199 8.85759 26.8459 8.80705 26.748 8.7633C26.6527 8.71837 26.5584 8.66861 26.4594 8.62002C26.4088 8.59728 26.3638 8.56642 26.3109 8.54603L26.154 8.48064C26.1007 8.45939 26.0498 8.43525 25.9978 8.41197L25.9198 8.37666C25.8937 8.36502 25.8649 8.35759 25.8376 8.34791C25.7262 8.31189 25.6201 8.26916 25.5114 8.2297C25.3989 8.19835 25.2866 8.16582 25.1748 8.13212L25.0917 8.10712C25.0627 8.10087 25.0328 8.0958 25.0042 8.08877L24.8317 8.04931C24.7738 8.03689 24.7193 8.02048 24.6598 8.0108L24.4811 7.98033L24.3048 7.94822L24.261 7.94009L24.2141 7.93572L24.1218 7.92369L23.9386 7.89876C23.8774 7.8908 23.8195 7.87916 23.7532 7.87775C23.6895 7.87126 23.626 7.86572 23.5632 7.85798C23.5009 7.84783 23.4384 7.84064 23.3773 7.82744C23.2516 7.80634 23.1195 7.79017 22.9946 7.75634C22.9309 7.74322 22.8698 7.72001 22.8059 7.70439C22.7407 7.68634 22.6752 7.67197 22.6108 7.65048C22.481 7.61298 22.3543 7.56212 22.2261 7.51455C22.0948 7.46806 21.9644 7.42361 21.8359 7.37572C21.7074 7.32767 21.5816 7.27806 21.4529 7.24048C21.2807 7.18688 21.1089 7.13187 20.9376 7.07548C20.8955 7.12513 20.8524 7.17399 20.8085 7.22205C20.7329 7.29869 20.6813 7.38017 20.6166 7.45251C20.5552 7.52587 20.4998 7.59525 20.4432 7.65837C20.3984 7.71795 20.3522 7.77653 20.3048 7.83408C20.2705 7.87725 20.2352 7.91974 20.1991 7.9615C20.1617 8.05656 20.1227 8.15097 20.0821 8.2447C20.0113 8.40674 19.9369 8.56717 19.859 8.72587C19.8388 8.76869 19.8163 8.8108 19.7946 8.85369C19.773 8.89801 19.7507 8.94198 19.7277 8.98556C19.5828 9.26421 19.4286 9.53793 19.2655 9.80626C19.0401 10.1809 18.7995 10.5461 18.5443 10.901C18.4179 11.0751 18.2912 11.2434 18.1629 11.4013C18.0426 11.5527 17.9185 11.7009 17.7905 11.8459C17.5494 12.1195 17.3262 12.3437 17.1596 12.4979C17.078 12.5756 17.0046 12.6338 16.9593 12.6747C16.9365 12.6953 16.9162 12.7095 16.9037 12.7199L16.8847 12.7341L16.8232 12.7799C16.4619 13.0491 15.9507 12.9744 15.6816 12.6131C15.6242 12.5356 15.5808 12.4488 15.5533 12.3564L15.5242 12.2579C15.5089 12.196 15.4794 12.1033 15.4553 11.9893C15.4245 11.8538 15.3983 11.7173 15.3769 11.58C15.3494 11.4067 15.3282 11.2325 15.3131 11.0577C15.2967 10.8678 15.2848 10.6631 15.2827 10.4489C15.2775 10.2338 15.2833 10.0095 15.297 9.77853C15.3109 9.54775 15.3348 9.31087 15.3674 9.0715C15.4001 8.83197 15.4432 8.59025 15.496 8.34978C15.5488 8.109 15.61 7.86947 15.6842 7.63525C15.712 7.54689 15.7411 7.45931 15.7718 7.37244C15.6848 7.38736 15.5976 7.40244 15.5098 7.41728C15.225 7.47134 14.9363 7.53314 14.6451 7.59853C14.3534 7.66556 14.0607 7.7415 13.7672 7.81728C13.4755 7.89962 13.1827 7.9797 12.8942 8.06423C12.6081 8.15275 12.3209 8.23439 12.0475 8.32509C11.7704 8.41025 11.5065 8.50142 11.2506 8.58314L10.5391 8.82572C10.4362 8.86423 10.3324 8.90036 10.2279 8.93408C10.1286 8.96634 10.0478 8.99712 9.9625 9.02259C9.88054 9.04947 9.80523 9.07142 9.73304 9.10236C9.66359 9.13087 9.60211 9.15306 9.55195 9.17095C9.45211 9.20697 9.39515 9.22314 9.39515 9.22314C9.31512 9.24591 9.23078 9.24907 9.14927 9.23234C9.06775 9.21561 8.99147 9.17949 8.92688 9.12704C8.86228 9.07458 8.81128 9.00734 8.77817 8.93099C8.74507 8.85465 8.73085 8.77146 8.73672 8.68845C8.73672 8.68845 8.74093 8.62939 8.75562 8.52431C8.76281 8.47166 8.77203 8.40689 8.78562 8.33306C8.79336 8.29541 8.79601 8.25712 8.81023 8.21158L8.85234 8.07025C8.88132 7.97033 8.92093 7.85666 8.96406 7.74212C9.01052 7.61871 9.06088 7.4968 9.11507 7.37658C9.17983 7.24203 9.24835 7.10932 9.32054 6.97861C9.40399 6.83578 9.49182 6.69556 9.5839 6.55814C9.78195 6.27634 10.0165 5.98064 10.2972 5.70056C10.5741 5.41478 10.8984 5.14751 11.2541 4.89501C11.6247 4.63871 12.0178 4.41677 12.4287 4.23197C12.8527 4.04681 13.3019 3.8933 13.7658 3.78384C14.2316 3.68087 14.7095 3.61728 15.1856 3.604C15.5189 3.59775 15.8497 3.61447 16.1726 3.65447C16.1147 3.54708 16.0499 3.44358 15.9786 3.34462C15.9359 3.28205 15.883 3.21728 15.8329 3.14806C15.7747 3.08259 15.7199 3.01509 15.6566 2.94392C15.5347 2.8047 15.3949 2.66212 15.258 2.51962L14.8413 2.10056C14.7133 1.97181 14.5863 1.84198 14.4604 1.71111C14.3452 1.58869 14.2452 1.48048 14.1615 1.38212C14.0702 1.2879 14.0019 1.20056 13.954 1.14681C13.93 1.11994 13.9126 1.09533 13.9005 1.08025L13.8823 1.05681L13.8434 1.00673C13.7967 0.946514 13.7656 0.875724 13.7527 0.800614C13.7399 0.725504 13.7457 0.648386 13.7698 0.576071C13.7938 0.503756 13.8352 0.438469 13.8905 0.385976C13.9457 0.333484 14.013 0.295401 14.0865 0.275092C14.0865 0.275092 14.1222 0.265248 14.1882 0.250092C14.2538 0.23642 14.3516 0.210873 14.473 0.189389C14.5995 0.170639 14.7584 0.143373 14.9355 0.128998L15.2197 0.103529C15.3206 0.0965763 15.4254 0.096967 15.5368 0.0937638C15.6479 0.0915763 15.7651 0.0947795 15.8873 0.0959513C16.0095 0.0982951 16.1357 0.112201 16.2675 0.12142C16.5309 0.151576 16.8133 0.191811 17.1124 0.272358C17.4109 0.348842 17.728 0.456186 18.05 0.617748C18.3734 0.774701 18.7004 0.985248 19.0115 1.24728C19.0885 1.314 19.1655 1.38205 19.2419 1.45165C19.3156 1.52439 19.389 1.59861 19.4617 1.67415C19.5323 1.75119 19.6022 1.82994 19.6714 1.90978C19.741 1.98955 19.8024 2.07345 19.8672 2.15697C20.0166 2.35994 20.1507 2.57048 20.264 2.78306C20.3662 2.68165 20.472 2.58283 20.5851 2.49275C20.772 2.33025 20.9765 2.19408 21.1833 2.05814C21.2889 1.99561 21.3954 1.93461 21.5027 1.87517C21.6096 1.81314 21.721 1.76736 21.8309 1.71423C22.2734 1.51501 22.7317 1.36955 23.1832 1.29111C23.6344 1.20962 24.0795 1.17759 24.5011 1.19939C24.9231 1.2179 25.3233 1.27712 25.6908 1.3733C26.0588 1.46423 26.3943 1.5929 26.6918 1.73205C26.9891 1.87611 27.2486 2.02915 27.4658 2.19103C27.574 2.27197 27.6744 2.34392 27.7617 2.42572C27.8499 2.50408 27.9277 2.57142 28.0019 2.64853C28.0664 2.71174 28.1284 2.77741 28.1878 2.8454C28.2298 2.90197 28.2644 2.95298 28.2923 2.99462C28.3206 3.03517 28.3408 3.06994 28.3549 3.09197L28.3762 3.12595C28.4198 3.19569 28.4458 3.27495 28.4521 3.35695C28.4584 3.43895 28.4447 3.52125 28.4123 3.59683C28.3798 3.6724 28.3296 3.73899 28.2658 3.7909C28.202 3.84282 28.1266 3.87851 28.046 3.89494L28.0067 3.90298C27.981 3.9079 27.9419 3.91728 27.893 3.9247C27.8436 3.93322 27.7828 3.9433 27.7127 3.95189C27.6494 3.96884 27.5799 3.9858 27.5055 4.00361C27.4336 4.02298 27.3445 4.04126 27.2524 4.06244C27.2059 4.07376 27.1591 4.08322 27.1105 4.0933L26.9596 4.129C26.7548 4.17587 26.53 4.23212 26.2962 4.28939C26.0615 4.3508 25.8169 4.4115 25.5684 4.48345C25.4444 4.51681 25.3196 4.55275 25.1948 4.59009L25.2433 4.61525C25.4224 4.70205 25.5959 4.81806 25.7658 4.92736L26.0169 5.09173C26.0983 5.14978 26.1765 5.21603 26.2544 5.27728L26.4836 5.46298C26.521 5.494 26.5586 5.52376 26.5948 5.55533L26.6996 5.6558C26.8366 5.79095 26.9738 5.91603 27.0944 6.05205C27.2064 6.18803 27.3172 6.32507 27.4267 6.46314C27.4526 6.49673 27.4801 6.52822 27.5035 6.56267L27.5725 6.66548C27.6177 6.73361 27.6626 6.79947 27.7037 6.86658L27.8249 7.06181C27.8652 7.1247 27.8948 7.19228 27.9285 7.25478C27.993 7.38197 28.0555 7.50095 28.1099 7.61642C28.138 7.67267 28.1621 7.7322 28.1848 7.79041L28.2507 7.95752C28.2921 8.06525 28.3319 8.16353 28.3635 8.2565L28.3873 8.32408L28.4034 8.38572L28.4327 8.50025C28.471 8.64455 28.4954 8.76173 28.5145 8.83994L28.5412 8.96166C28.565 9.07132 28.5443 9.18595 28.4837 9.28039C28.4231 9.37483 28.3275 9.44137 28.2179 9.46541Z" fill="#2BA52E"/>
<path d="M34.0791 21.7079C33.1087 21.7079 32.2137 21.0742 31.9254 20.096C31.1899 17.6004 29.8735 15.5512 28.2188 14.3259C27.2218 13.5876 27.012 12.1808 27.7504 11.1838C28.4887 10.1867 29.8955 9.97698 30.8925 10.7153C33.3276 12.5185 35.2249 15.3989 36.235 18.8259C36.5857 20.0159 35.9053 21.2649 34.7153 21.6157C34.5088 21.6767 34.2945 21.7078 34.0791 21.7079Z" fill="#FF8888"/>
</g>
<defs>
<clipPath id="clip0_4_12">
<rect width="40" height="40" fill="white"/>
</clipPath>
</defs>
</svg>
